<svg width="140" height="140" viewBox="0 0 140 140" fill="none" xmlns="http://www.w3.org/2000/svg">
<path fill-rule="evenodd" clip-rule="evenodd" d="M70 140C108.66 140 140 108.66 140 70C140 31.3401 108.66 0 70 0C31.3401 0 0 31.3401 0 70C0 108.66 31.3401 140 70 140ZM35.3493 35.3542C34.7458 39.6053 34.9242 43.9461 35.885 48.1438C39.4504 32.5976 53.3692 21.0013 69.9966 21C66.5637 23.5793 63.6204 26.7747 61.3314 30.4229C74.8452 21.951 92.8874 23.5934 104.646 35.3495C100.395 34.7458 96.0541 34.9244 91.8562 35.8853C107.402 39.4506 118.998 53.3694 119 69.9966C116.421 66.5637 113.225 63.6204 109.577 61.3316C118.049 74.8454 116.407 92.8876 104.651 104.646C105.254 100.395 105.076 96.0543 104.115 91.8562C100.549 107.402 86.6308 118.999 70.0034 119C73.4361 116.421 76.3792 113.225 78.6682 109.578C65.1544 118.049 47.1126 116.407 35.3542 104.651C39.6053 105.255 43.9461 105.076 48.1442 104.115C32.598 100.549 21.0017 86.6306 21 70.0034C23.5791 73.4363 26.7747 76.3792 30.4225 78.668C21.9508 65.1542 23.5932 47.1129 35.3493 35.3542Z" fill="#9EFFEE"/>
</svg>
